# xmcd
#
# Track frame offsets:
#	150
#	15888
#	28131
#	42243
#	54766
#	65810
#	77910
#	90554
#	101527
#	114124
#	129760
#	144171
#	157370
#	170124
#	183278
#	197037
#	210398
#	222572
#	236112
#	248578
#	263236
#	277971
#	291248
#	303383
#	315643
#
# Disc length: 4378 seconds
#
# Revision: 2
# Processed by: cddbd v1.5.2PL0 Copyright (c) Steve Scherf et al.
# Submitted via: EZCDAudioConverter 2.3.5.1
#
DISCID=5f111819
DTITLE=Nat King Cole - Love Songs
DYEAR=1900
DGENRE=Blues
TTITLE0=Unforgettable
TTITLE1=Dance Ballerina Dance
TTITLE2=It's All In The Game
TTITLE3=Let There Be Love
TTITLE4=St.Louis Blues
TTITLE5=A Beautiful Friendship
TTITLE6=Let's Fall In Love
TTITLE7=Those Lazy Hazy Crazy Days Of Summer
TTITLE8=Pretend
TTITLE9=Mona Lisa
TTITLE10=When I Fall In Love
TTITLE11=Nature Boy
TTITLE12=Ramblin' Rose
TTITLE13=Smile
TTITLE14=Serenata
TTITLE15=Tenderly
TTITLE16=Love Is A Many Splendoured Thing
TTITLE17=Stay As Sweet As You Are
TTITLE18=Love Letters
TTITLE19=The Christmas Song (Merry Christmas To You)
TTITLE20=Stardust (bonus)
TTITLE21=Answer Me (bonus)
TTITLE22=Autumn Leaves (bonus)
TTITLE23=Walkin' My Baby Back Home
TTITLE24=There Goes My Heart
EXTD=
EXTT0=
EXTT1=
EXTT2=
EXTT3=
EXTT4=
EXTT5=
EXTT6=
EXTT7=
EXTT8=
EXTT9=
EXTT10=
EXTT11=
EXTT12=
EXTT13=
EXTT14=
EXTT15=
EXTT16=
EXTT17=
EXTT18=
EXTT19=
EXTT20=
EXTT21=
EXTT22=
EXTT23=
EXTT24=
PLAYORDER=
